# xmcd
#
# Track frame offsets: 
#        150
#        14085
#        28005
#        41682
#        54092
#        67392
#        80750
#        97470
#        108232
#        122842
#        140000
#        151570
#        164432
#        179742
#        193452
#        207507
#        221000
#        233745
#        247077
#        262320
#
# Disc length: 3690 seconds
#
# Revision: 2
# Processed by: cddbd v1.5.2PL0 Copyright (c) Steve Scherf et al.
# Submitted via: ExactAudioCopyFreeDBPlugin 1.0
#
DISCID=420e6814
DTITLE=納所文子　他 - 想い出の戦前戦中歌謡大全集
DYEAR=1900
DGENRE=Pop
TTITLE0=納所文子 - 鉄道唱歌
TTITLE1=塩原秩峰 - 春爛漫の花の色
TTITLE2=塩原秩峰 - 嗚呼玉杯に花受けて
TTITLE3=吉原〆次 - ラッパ節
TTITLE4=塩原秩峰 - 夜半の追憶 (男三郎の歌)
TTITLE5=斎藤松声 - ハイカラ節
TTITLE6=山下禎子 - 真白き富士の嶺
TTITLE7=市助 - まっくろけ節
TTITLE8=松井須磨子 - ゴンドラの唄
TTITLE9=松井須磨子 - さすらいの唄
TTITLE10=松井須磨子 - 復活唱歌 (カチューシャの唄)
TTITLE11=斎藤松声 - 薔薇の唄
TTITLE12=塩原秩峰 - パイノパイノパイ
TTITLE13=鳥取春陽 - のんき節
TTITLE14=鳥取春陽 - 新金色夜叉の唄
TTITLE15=鳥取春陽 - 船頭小唄
TTITLE16=鳥取春陽　渋谷白涙 - 流浪の旅
TTITLE17=歌川八重子 - 籠の鳥
TTITLE18=金龍 - ストトン節
TTITLE19=石田一涙　石田二三子 - 復興節
EXTD=
EXTT0=
EXTT1=
EXTT2=
EXTT3=
EXTT4=
EXTT5=
EXTT6=
EXTT7=
EXTT8=
EXTT9=
EXTT10=
EXTT11=
EXTT12=
EXTT13=
EXTT14=
EXTT15=
EXTT16=
EXTT17=
EXTT18=
EXTT19=
PLAYORDER=
